<?xml version="1.0" encoding="UTF-8" standalone="no"?>
<svg
   xmlns:dc="http://purl.org/dc/elements/1.1/"
   xmlns:cc="http://creativecommons.org/ns#"
   xmlns:rdf="http://www.w3.org/1999/02/22-rdf-syntax-ns#"
   xmlns:svg="http://www.w3.org/2000/svg"
   xmlns="http://www.w3.org/2000/svg"
   viewBox="0 0 160 39"
   height="39"
   width="160"
   id="svg5041"
   version="1.1">
  <metadata
     id="metadata5047">
    <rdf:RDF>
      <cc:Work
         rdf:about="">
        <dc:format>image/svg+xml</dc:format>
        <dc:type
           rdf:resource="http://purl.org/dc/dcmitype/StillImage" />
        <dc:title></dc:title>
      </cc:Work>
    </rdf:RDF>
  </metadata>
  <defs
     id="defs5045" />
  <path
     id="path6166"
     d="m 96.338661,36.315921 c -1.073808,-0.447121 -1.609496,-1.359771 -1.534533,-2.61439 0.04857,-0.813558 0.246476,-1.24443 0.810079,-1.763933 0.918213,-0.846379 2.378159,-0.839491 3.324743,0.0157 0.57018,0.515118 0.76476,1.012831 0.76585,1.958919 0,0.69114 -0.0305,0.858785 -0.23186,1.242754 -0.29359,0.559786 -0.62044,0.87076 -1.171323,1.114355 -0.672649,0.297443 -1.323445,0.31289 -1.962956,0.04661 z m 1.721604,-0.712282 c 0.966385,-0.499734 1.182865,-2.198878 0.391695,-3.074599 -0.71371,-0.789983 -2.036328,-0.66752 -2.566807,0.237673 -0.27332,0.466389 -0.367103,1.240505 -0.217351,1.7941 0.125843,0.465188 0.608377,1.020776 1.002023,1.153705 0.365144,0.12331 1.041957,0.06933 1.39044,-0.110879 z m -69.367027,0.726174 c -0.02374,-0.06175 -0.03244,-1.190215 -0.0194,-2.507691 l 0.02366,-2.395413 h 0.396295 0.396304 l 0.890834,1.614709 c 0.489959,0.888092 0.911936,1.634864 0.937718,1.659495 0.02575,0.02463 0.460031,-0.711969 0.964996,-1.636895 l 0.918113,-1.681691 h 0.390101 0.390099 l -0.02358,2.507691 -0.02358,2.507696 h -0.310689 -0.31069 l -0.02407,-1.864063 -0.02407,-1.864065 -0.829817,1.508992 c -0.710837,1.292644 -0.862595,1.512952 -1.058493,1.536609 -0.270661,0.03269 -0.347999,-0.07594 -1.315102,-1.847358 l -0.654258,-1.19837 -0.0239,1.886317 -0.0239,1.886319 H 29.0481 c -0.171438,0 -0.331095,-0.05052 -0.354795,-0.112282 z m 9.350147,0.06356 c -0.02683,-0.02682 0.06036,-0.316409 0.19365,-0.643563 0.133307,-0.327164 0.574402,-1.443681 0.980219,-2.481153 l 0.737848,-1.886317 h 0.421333 0.421332 l 0.26537,0.643562 c 0.489006,1.185959 1.70409,4.290209 1.70409,4.353562 0,0.08389 -0.637713,0.07776 -0.771689,-0.0074 -0.05828,-0.03702 -0.231378,-0.441758 -0.384683,-0.899379 -0.289079,-0.862824 -1.103111,-2.917442 -1.190513,-3.004843 -0.02742,-0.02741 -0.06529,-0.03319 -0.08413,-0.01284 -0.04397,0.04742 -0.988086,2.532308 -1.228225,3.232632 -0.100438,0.292935 -0.221873,0.582541 -0.269843,0.643569 -0.08586,0.109235 -0.699685,0.157295 -0.794754,0.06223 z m 8.777576,-0.01042 c -0.03252,-0.03255 -0.05919,-1.17535 -0.05919,-2.539566 v -2.480378 l 1.309334,0.03993 c 1.456118,0.04439 1.741709,0.124116 2.321522,0.647943 0.188365,0.170177 0.431656,0.516704 0.540644,0.770065 0.16817,0.390912 0.192572,0.577797 0.161171,1.234518 -0.03185,0.66641 -0.07365,0.833461 -0.301099,1.203012 -0.320285,0.520418 -0.942516,0.957155 -1.548988,1.087222 -0.489098,0.104892 -2.327498,0.133147 -2.423404,0.03724 z m 2.757341,-0.84643 c 0.193258,-0.127888 0.425313,-0.385894 0.515683,-0.573335 0.207777,-0.430959 0.272082,-1.328048 0.127206,-1.774494 -0.282484,-0.870516 -0.786864,-1.179968 -1.928163,-1.183013 l -0.73233,-0.0018 v 1.919104 1.919089 l 0.83311,-0.03643 c 0.714741,-0.03128 0.883036,-0.06948 1.184494,-0.268972 z m 5.943991,0.848496 c -0.03369,-0.03369 -0.06128,-1.173059 -0.06128,-2.531953 v -2.470708 h 0.887675 0.887684 v 0.310687 0.310686 h -0.488213 -0.48823 v 0.798912 0.79891 h 0.932067 0.932066 v 0.310687 0.310691 h -0.932066 -0.932067 v 0.798911 0.798912 h 1.159607 1.159616 l -0.02784,0.288494 -0.02785,0.288496 -1.469995,0.02428 c -0.808498,0.01334 -1.497558,-0.0031 -1.53124,-0.03697 z m 12.536397,0.02026 c -0.02031,-0.0203 -0.02575,-1.158732 -0.01212,-2.529888 l 0.02492,-2.493007 h 0.352363 0.352372 v 2.529881 2.529886 H 68.43595 c -0.187154,0 -0.356919,-0.01662 -0.377258,-0.03688 z m 5.485625,-0.01807 c -0.03486,-0.03488 -0.06337,-1.175199 -0.06337,-2.534093 v -2.470711 h 0.25711 c 0.305614,0 0.345733,0.04339 1.910446,2.067404 0.63069,0.81582 1.169957,1.483327 1.198364,1.483363 0.02842,2.7e-5 0.05167,-0.788894 0.05167,-1.753164 v -1.75322 l 0.332876,-0.02754 0.332877,-0.02754 v 2.53524 c 0,2.440036 -0.0067,2.535245 -0.170277,2.535245 -0.09365,0 -0.228368,-0.02231 -0.299368,-0.04954 -0.07098,-0.02723 -0.743357,-0.841225 -1.494122,-1.808851 l -1.365027,-1.759306 -0.04439,1.786655 -0.0444,1.786661 -0.26949,0.02642 c -0.148222,0.01452 -0.298023,-0.0022 -0.332884,-0.03697 z m 13.936575,1.9e-5 c -0.03486,-0.03488 -0.06337,-1.175218 -0.06337,-2.534112 v -2.470711 h 0.88331 c 0.485813,0 1.086165,0.04353 1.334112,0.09668 1.066002,0.228623 1.539826,1.232986 1.044793,2.214671 -0.285661,0.566464 -0.754702,0.80273 -1.7123,0.862468 l -0.745071,0.04649 -0.02516,0.897549 -0.02516,0.897545 -0.313857,0.02642 c -0.172624,0.01452 -0.342398,-0.0022 -0.377268,-0.03697 z m 2.342571,-2.76702 c 0.177908,-0.199116 0.25706,-0.381654 0.25706,-0.592815 0,-0.706379 -0.409929,-1.023607 -1.322735,-1.023607 h -0.54139 v 0.986151 0.986147 l 0.674998,-0.0341 c 0.629906,-0.03183 0.69217,-0.05331 0.932067,-0.321792 z m 14.254989,2.764956 c -0.0337,-0.03373 -0.0614,-1.173154 -0.0614,-2.532048 v -2.470711 h 0.39948 0.39946 v 2.219196 2.219199 h 1.07084 1.07083 l -0.0278,0.288496 -0.0278,0.288496 -1.38111,0.02437 c -0.75963,0.01338 -1.40874,-0.0031 -1.44248,-0.03702 z m 6.4187,-0.01776 c 0,-0.0411 0.43411,-1.169591 0.9647,-2.507696 l 0.96475,-2.432923 0.40014,-0.0266 0.40019,-0.02659 0.93821,2.352507 c 0.51602,1.293883 0.95036,2.424332 0.96526,2.512107 0.0223,0.131322 -0.035,0.159605 -0.32462,0.159605 -0.4047,0 -0.42655,-0.03005 -0.83977,-1.153984 -0.1436,-0.390579 -0.45584,-1.222971 -0.69391,-1.849754 l -0.43278,-1.139614 -0.25137,0.65139 c -0.13823,0.358259 -0.32566,0.818961 -0.41654,1.023775 -0.0908,0.204815 -0.16546,0.404545 -0.16572,0.44384 0,0.17023 -0.73366,1.940132 -0.82772,1.999943 -0.14281,0.09084 -0.68082,0.08611 -0.68082,-0.0059 z m 8.75845,0.01557 c -0.0328,-0.03255 -0.0592,-1.170994 -0.0592,-2.529885 v -2.470705 h 0.29444 c 0.27781,0 0.37447,0.102818 1.70877,1.817825 l 1.41434,1.81782 0.0241,-1.81782 0.0242,-1.817825 h 0.35467 0.35462 l -0.0236,2.507691 -0.0236,2.507695 -0.20706,0.02933 c -0.28742,0.0407 -0.39806,-0.07595 -1.86731,-1.969344 l -1.29883,-1.673719 -0.0241,1.829063 -0.0242,1.829061 h -0.29407 c -0.16176,0 -0.32075,-0.02664 -0.35326,-0.05918 z m 8.79542,0.0088 c -0.0364,-0.03737 -0.0666,-1.184119 -0.0666,-2.548334 v -2.480387 l 1.30937,0.03993 c 1.45609,0.04439 1.74169,0.124115 2.3215,0.647934 0.76009,0.686683 0.98592,2.023723 0.50714,3.002326 -0.27095,0.553772 -0.62033,0.88746 -1.20864,1.154429 -0.3214,0.145839 -0.63363,0.188179 -1.59783,0.216652 -0.65912,0.01949 -1.22831,0.0048 -1.26492,-0.03255 z m 2.37349,-0.670243 c 0.69609,-0.193254 1.11463,-0.89809 1.10674,-1.863923 -0.0104,-1.291783 -0.6138,-1.853819 -1.98987,-1.853819 h -0.75804 v 1.908508 1.908514 l 0.64354,-9.19e-4 c 0.35399,0 0.8029,-0.04471 0.99763,-0.09878 z M 8.5028166,25.017199 C 7.6433149,24.964807 5.9944587,24.720222 5.2808543,24.539269 3.407409,24.064206 2.1445149,23.076575 1.5587507,21.628432 L 1.3569921,21.129631 1.3324975,13.295858 1.3080028,5.4620909 h 1.8011988 1.8011989 l -0.033272,7.2123941 c -0.024244,5.258486 -0.00585,7.314912 0.068969,7.590824 0.2105953,0.77927 0.9024387,1.283098 2.2468593,1.636244 0.7181688,0.188643 0.8814132,0.193191 8.1228322,0.226221 l 7.389926,0.03369 v 1.459161 1.45916 l -6.857322,-0.01644 c -3.771528,-0.009 -7.0770224,-0.02982 -7.3455424,-0.04618 z M 34.920923,24.985459 C 31.995196,24.64598 29.75556,23.452054 28.982333,21.81967 l -0.284825,-0.6013 -0.02525,-5.685573 C 28.648438,10.172276 28.656548,9.816492 28.814265,9.309792 29.262858,7.8684605 30.560739,6.7126698 32.425774,6.0936556 33.892258,5.60692 34.545755,5.5326352 37.774045,5.4856999 l 2.951526,-0.042936 v 1.4647102 1.4647064 l -2.640846,0.043663 c -2.212274,0.036559 -2.770492,0.072673 -3.439756,0.2224438 -0.945668,0.2116298 -1.489264,0.4347916 -1.899051,0.7796015 -0.499732,0.4204975 -0.542067,0.6278062 -0.542067,2.6545192 v 1.822599 h 8.788026 8.788026 v 1.46467 1.464669 h -8.794471 -8.794454 l 0.02868,1.841936 c 0.02434,1.564755 0.0525,1.885609 0.187146,2.132183 0.351334,0.643234 1.330994,1.082499 2.812869,1.261234 0.452381,0.05456 3.504058,0.09072 7.65624,0.09072 h 6.90403 v 1.46467 1.464671 L 42.656314,25.0681 C 38.73832,25.0617 35.257418,25.02448 34.920971,24.98546 Z m 21.182086,-9.159745 0.02382,-9.2540505 0.196968,-0.3683214 c 0.315035,-0.5891022 0.721027,-0.7856619 1.622772,-0.7856619 0.702252,0 0.79758,0.023081 1.375903,0.332881 0.458962,0.2458725 2.813973,2.1971047 9.009949,7.4651278 l 8.388563,7.132253 0.02266,-7.442939 0.02267,-7.4429417 h 1.82123 1.821238 l -0.02416,9.2096697 -0.02415,9.209676 -0.207344,0.421024 c -0.335869,0.681995 -0.541297,0.777487 -1.670482,0.776507 -0.903149,-9.19e-4 -0.990218,-0.01689 -1.406584,-0.260486 -0.244111,-0.142806 -4.258645,-3.498365 -8.921175,-7.456792 l -8.477343,-7.197143 -0.02267,7.457625 -0.02266,7.457631 H 57.855752 56.0793 Z m 39.520619,9.159231 c -0.149166,-0.04334 -0.368857,-0.182765 -0.488229,-0.309813 l -0.217032,-0.230991 -0.02358,-8.026367 -0.02358,-8.0263655 h -4.1707 -4.170697 V 6.9267421 5.4620683 h 10.119541 10.119569 v 1.4646738 1.4646702 h -4.17208 -4.17213 v 7.9031937 c 0,8.777706 0.0245,8.406425 -0.570951,8.655215 -0.346997,0.144991 -1.774749,0.167476 -2.230131,0.03514 z m 48.960382,0.03223 c -0.8595,-0.05239 -2.50836,-0.296977 -3.22196,-0.477929 -1.87341,-0.475063 -3.13633,-1.462694 -3.72209,-2.910838 l -0.20175,-0.4988 -0.0245,-7.833773 -0.0246,-7.8337669 h 1.8012 1.8012 l -0.0331,7.2123949 c -0.0241,5.258485 -0.006,7.314912 0.0689,7.590823 0.21061,0.77927 0.90242,1.283098 2.24683,1.636244 0.71821,0.188643 0.88143,0.193192 8.12289,0.226222 l 7.3899,0.03369 v 1.459161 1.459161 l -6.85732,-0.01644 c -3.77153,-0.009 -7.07705,-0.02982 -7.34556,-0.04618 z m -37.50442,-0.155728 c -0.0488,-0.01785 -0.19554,-0.05589 -0.32607,-0.08456 -0.75422,-0.165692 -1.38225,-1.383965 -1.04156,-2.020545 0.0533,-0.09973 1.43847,-2.00451 3.078,-4.232829 5.33904,-7.25643 8.31396,-11.3209532 8.65037,-11.818689 0.6791,-1.0048277 1.40725,-1.9981772 1.48381,-2.0242878 0.0438,-0.014839 0.49089,0.5643577 0.99402,1.2871362 0.50315,0.7227785 3.4477,4.7686766 6.54345,8.9908786 3.09572,4.222198 5.66849,7.764268 5.71725,7.871265 0.12424,0.272711 0.006,0.939075 -0.22865,1.287101 -0.41504,0.615835 -1.1786,0.89731 -1.90423,0.70193 -0.67696,-0.182293 -0.42718,0.134387 -5.67048,-7.189618 -0.78878,-1.101775 -2.31944,-3.250875 -3.40152,-4.775774 -1.08208,-1.524898 -1.99675,-2.790692 -2.03262,-2.812868 -0.036,-0.02217 -0.74216,0.922648 -1.5695,2.099623 -0.82735,1.176971 -1.90501,2.682434 -2.39475,3.345474 -0.4898,0.663045 -1.35931,1.864632 -1.93232,2.670205 -2.40273,3.377918 -4.22915,5.888018 -4.45843,6.12736 -0.36678,0.382831 -1.18364,0.6963 -1.50677,0.578204 z"
     style="fill:#000000;stroke-width:0.08876792" />
</svg>
